<svg version="1.1" viewBox="0 0 1024 1024" viewbox="0 0 1024 1024" xmlns="http://www.w3.org/2000/svg">
 <g transform="scale(1, -1) translate(0, -900)">
  <path d="M 638 519 L 619 755" stroke="black"></path>
  <!--<path d="M 580 537 Q 598 513 613 505 Q 623 498 638 519 Q 653 544 681 679 Q 690 709 712 733 Q 725 745 714 758 Q 699 774 658 800 Q 643 809 572 793 Q 566 793 461 773 Q 421 766 386 759 L 403 728 Q 523 761 592 761 Q 610 764 619 755 Q 632 740 629 724 Q 608 585 591 567 L 580 537 Z" fill="black">
  </path>-->
 </g>
 <g transform="translate(0, -900)">
  <text x="595" y="1297">
   1
  </text>
  <text x="646" y="1061">
   2
  </text>
 </g>
</svg>