<svg version="1.1" viewBox="0 0 1024 1024" viewbox="0 0 1024 1024" xmlns="http://www.w3.org/2000/svg">
 <g transform="scale(1, -1) translate(0, -900)">
  <path d="M 350 571 Q 380 593 449 614 Q 465 615 468 623 Q 471 633 458 643 Q 439 656 396 668 Q 381 674 370 672 Q 363 668 363 657 Q 364 621 200 527 Q 196 518 201 516 Q 213 516 290 546 Q 303 550 316 556 L 350 571 Z" fill="black">
  </path>
  <path d="M 584 466 Q 666 485 734 497 Q 746 496 754 511 Q 755 524 729 533 Q 693 554 622 527 Q 598 520 575 511 L 537 499 Q 518 495 500 488 Q 442 472 386 457 L 337 446 Q 327 446 179 416 Q 148 409 173 392 Q 212 365 241 376 Q 287 389 339 404 L 387 416 Q 460 438 545 457 L 584 466 Z" fill="black">
  </path>
 </g>
 <g transform="translate(0, -900)">
  <text x="754" y="1305">
   1
  </text>
  <text x="241" y="1440">
   2
  </text>
 </g>
</svg>