<svg version="1.1" viewBox="0 0 1024 1024" viewbox="0 0 1024 1024" xmlns="http://www.w3.org/2000/svg">
 <g transform="scale(1, -1) translate(0, -900)">
  <path d="M 350 571 Q 380 593 449 614 Q 465 615 468 623 Q 471 633 458 643 Q 439 656 396 668 Q 381 674 370 672 Q 363 668 363 657 Q 364 621 200 527 Q 196 518 201 516 Q 213 516 290 546 Q 303 550 316 556 L 350 571 Z" fill="black">
  </path>
  <path d="M 584 466 Q 666 485 734 497 Q 746 496 754 511 Q 755 524 729 533 Q 693 554 622 527 Q 598 520 575 511 L 537 499 Q 518 495 500 488 Q 442 472 386 457 L 337 446 Q 327 446 179 416 Q 148 409 173 392 Q 212 365 241 376 Q 287 389 339 404 L 387 416 Q 460 438 545 457 L 584 466 Z" fill="black">
  </path>
  <path d="M 386 457 Q 387 493 398 517 Q 405 535 390 548 Q 371 564 350 571 L 316 556 Q 315 556 316 555 Q 338 519 337 478 Q 337 462 337 446 L 339 404 Q 340 343 339 289 L 338 241 Q 337 180 334 133 Q 333 115 323 109 Q 317 105 250 119 Q 238 122 239 114 Q 240 108 249 100 Q 309 42 328 6 Q 341 -10 357 3 Q 390 36 390 126 Q 387 169 387 265 L 387 306 Q 387 355 387 416 L 386 457 Z" fill="black">
  </path>
  <path d="M 339 289 Q 254 261 161 229 Q 139 222 101 221 Q 86 220 85 207 Q 84 192 94 184 Q 119 166 157 147 Q 169 144 182 154 Q 239 199 338 241 L 387 265 Q 477 314 484 318 Q 499 327 498 337 Q 492 343 479 340 Q 434 324 387 306 L 339 289 Z" fill="black">
  </path>
 </g>
 <g transform="translate(0, -900)">
  <text x="101" y="1595">
   1
  </text>
  <text x="498" y="1479">
   2
  </text>
 </g>
</svg>