<svg version="1.1" viewBox="0 0 1024 1024" viewbox="0 0 1024 1024" xmlns="http://www.w3.org/2000/svg">
 <g transform="scale(1, -1) translate(0, -900)">
  <path d="M 337 653 Q 467 693 469 694 Q 476 701 472 709 Q 465 719 437 725 Q 409 729 348 702 L 299 685 Q 250 672 194 663 Q 161 656 186 641 Q 228 622 290 641 L 292 641 L 337 653 Z" fill="lightgray">
  </path>
  <path d="M 313 557 Q 325 606 337 653 L 348 702 Q 352 745 381 801 Q 385 810 371 825 Q 344 846 325 853 Q 312 857 304 852 Q 297 846 301 833 Q 314 805 312 788 Q 308 739 299 685 L 292 641 Q 285 598 274 548 L 313 557 Z" fill="lightgray">
  </path>
  <path d="M 186 527 Q 176 533 146 535 Q 136 538 132 533 Q 128 527 136 513 Q 166 455 187 361 Q 191 333 209 314 Q 225 295 230 309 Q 231 313 232 320 L 231 344 Q 228 368 217 409 L 212 431 Q 202 477 199 497 L 186 527 Z" fill="lightgray">
  </path>
  <path d="M 359 342 Q 372 321 385 314 Q 394 307 408 325 Q 421 347 454 467 Q 461 494 482 516 Q 494 526 484 539 Q 471 554 434 577 Q 421 583 352 566 Q 346 566 313 557 L 274 548 Q 262 547 253 543 Q 217 534 186 527 L 199 497 Q 262 518 371 540 Q 393 544 403 537 Q 415 527 411 509 Q 381 382 366 369 L 359 342 Z" fill="lightgray">
  </path>
  <path d="M 217 409 Q 221 409 228 410 Q 300 426 353 438 Q 374 442 365 453 Q 355 466 332 468 Q 316 469 212 431 L 217 409 Z" fill="lightgray">
  </path>
  <path d="M 312 334 Q 334 338 359 342 L 366 369 Q 359 372 351 373 Q 321 376 231 344 L 232 320 Q 233 320 237 320 Q 256 324 276 327 L 312 334 Z" fill="lightgray">
  </path>
  <path d="M 325 219 Q 377 232 443 245 Q 458 248 458 255 Q 459 267 442 274 Q 412 284 326 256 L 279 243 Q 159 210 66 195 Q 56 194 52 186 Q 51 176 64 167 Q 100 145 137 158 Q 218 188 277 206 L 325 219 Z" fill="lightgray">
  </path>
  <path d="M 277 206 Q 277 106 263 70 Q 251 42 283 -9 Q 293 -27 299 -30 Q 309 -31 314 -20 Q 323 1 323 111 Q 323 168 325 219 L 326 256 Q 327 289 332 305 Q 333 315 328 321 Q 321 328 312 334 L 276 327 Q 280 314 279 243 L 277 206 Z" fill="lightgray">
  </path>
  <path d="M 688 741 Q 691 774 714 826 Q 718 835 703 850 Q 676 869 656 876 Q 643 880 636 874 Q 629 868 634 855 Q 647 831 645 816 Q 642 774 638 728 L 634 696 Q 628 650 621 599 L 659 607 Q 669 659 681 707 L 688 741 Z" fill="lightgray">
  </path>
  <path d="M 813 640 Q 831 689 858 708 Q 873 724 859 740 Q 846 750 799 772 Q 783 778 765 771 Q 725 752 688 741 L 638 728 Q 601 721 563 714 Q 548 713 550 703 Q 553 696 570 691 Q 585 685 634 696 L 681 707 Q 771 728 778 722 Q 790 707 764 629 L 813 640 Z" fill="lightgray">
  </path>
  <path d="M 621 599 Q 569 590 513 579 Q 497 576 510 563 Q 522 553 537 549 Q 555 545 567 550 Q 741 607 939 607 L 941 607 Q 957 608 961 616 Q 965 626 950 636 Q 902 669 839 647 Q 826 644 813 640 L 764 629 Q 739 625 713 618 Q 686 614 659 607 L 621 599 Z" fill="lightgray">
  </path>
  <path d="M 580 508 Q 573 512 544 514 Q 534 515 532 512 Q 528 506 536 494 Q 557 461 575 404 Q 579 386 590 376 Q 606 360 609 373 Q 610 377 610 384 L 606 412 Q 593 464 590 483 L 580 508 Z" fill="lightgray">
  </path>
  <path d="M 793 437 Q 814 479 835 489 Q 848 502 838 517 Q 775 566 737 543 Q 680 525 580 508 L 590 483 L 739 511 Q 757 515 763 508 Q 769 499 752 444 L 793 437 Z" fill="lightgray">
  </path>
  <path d="M 709 398 Q 748 405 802 410 Q 811 411 812 418 Q 812 424 793 437 L 752 444 Q 748 444 745 443 Q 669 424 606 412 L 610 384 Q 619 384 629 385 Q 642 389 662 391 L 709 398 Z" fill="black">
  </path>
 </g>
 <g transform="scale(8)">
  <text stroke="blue" x="90.525" y="47.0125">
   a
  </text>
  <text stroke="blue" x="115.025" y="75.2375">
   b
  </text>
 </g>
</svg>