<svg version="1.1" viewBox="0 0 1024 1024" viewbox="0 0 1024 1024" xmlns="http://www.w3.org/2000/svg">
 <g transform="scale(1, -1) translate(0, -900)">
  <path d="M 337 653 Q 467 693 469 694 Q 476 701 472 709 Q 465 719 437 725 Q 409 729 348 702 L 299 685 Q 250 672 194 663 Q 161 656 186 641 Q 228 622 290 641 L 292 641 L 337 653 Z" fill="lightgray">
  </path>
  <path d="M 313 557 Q 325 606 337 653 L 348 702 Q 352 745 381 801 Q 385 810 371 825 Q 344 846 325 853 Q 312 857 304 852 Q 297 846 301 833 Q 314 805 312 788 Q 308 739 299 685 L 292 641 Q 285 598 274 548 L 313 557 Z" fill="lightgray">
  </path>
  <path d="M 186 527 Q 176 533 146 535 Q 136 538 132 533 Q 128 527 136 513 Q 166 455 187 361 Q 191 333 209 314 Q 225 295 230 309 Q 231 313 232 320 L 231 344 Q 228 368 217 409 L 212 431 Q 202 477 199 497 L 186 527 Z" fill="lightgray">
  </path>
  <path d="M 359 342 Q 372 321 385 314 Q 394 307 408 325 Q 421 347 454 467 Q 461 494 482 516 Q 494 526 484 539 Q 471 554 434 577 Q 421 583 352 566 Q 346 566 313 557 L 274 548 Q 262 547 253 543 Q 217 534 186 527 L 199 497 Q 262 518 371 540 Q 393 544 403 537 Q 415 527 411 509 Q 381 382 366 369 L 359 342 Z" fill="black">
  </path>
 </g>
 <g transform="scale(8)">
  <text stroke="blue" x="37.8625" y="33.8875">
   a
  </text>
  <text stroke="blue" x="65.6125" y="84.6125">
   b
  </text>
 </g>
</svg>