<svg version="1.1" viewBox="0 0 1024 1024" viewbox="0 0 1024 1024" xmlns="http://www.w3.org/2000/svg">
 <g transform="scale(1, -1) translate(0, -900)">
  <path d="M 386 759 Q 374 763 348 769 Q 336 772 333 767 Q 326 760 335 744 Q 368 674 385 561 Q 389 527 408 503 Q 426 481 431 497 Q 434 507 435 522 L 434 546 Q 433 564 420 624 L 416 648 Q 406 706 403 728 L 386 759 Z" fill="lightgray">
  </path>
  <path d="M 580 537 Q 598 513 613 505 Q 623 498 638 519 Q 653 544 681 679 Q 690 709 712 733 Q 725 745 714 758 Q 699 774 658 800 Q 643 809 572 793 Q 566 793 461 773 Q 421 766 386 759 L 403 728 Q 523 761 592 761 Q 610 764 619 755 Q 632 740 629 724 Q 608 585 591 567 L 580 537 Z" fill="lightgray">
  </path>
  <path d="M 420 624 Q 424 623 430 624 Q 506 637 563 645 Q 585 649 577 661 Q 567 674 543 678 Q 513 681 416 648 L 420 624 Z" fill="lightgray">
  </path>
  <path d="M 435 522 Q 438 521 447 522 Q 522 532 580 537 L 591 567 Q 585 571 577 572 Q 547 576 434 546 L 435 522 Z" fill="black">
  </path>
 </g>
 <g transform="scale(8)">
  <text stroke="blue" x="69.3375" y="30.30625">
   a
  </text>
  <text stroke="blue" x="87.5875" y="59.31875">
   b
  </text>
 </g>
</svg>