<svg version="1.1" viewBox="0 0 1024 1024" viewbox="0 0 1024 1024" xmlns="http://www.w3.org/2000/svg">
 <g transform="scale(1, -1) translate(0, -900)">
  <path d="M 323 706 Q 325 699 328 694 Q 334 686 367 671 Q 474 619 574 561 Q 600 545 617 543 Q 627 545 631 559 Q 641 576 613 621 Q 575 684 334 717 Q 321 719 323 706 Z" fill="black">
  </path>
  <path d="M 312 541 Q 314 535 316 531 Q 320 524 347 512 Q 455 461 563 397 Q 588 380 606 380 Q 615 382 619 396 Q 629 414 602 457 Q 564 519 321 554 Q 320 555 319 555 Q 310 555 312 541 Z" fill="black">
  </path>
 </g>
</svg>